<svg width="16" height="16" viewBox="0 0 16 16" fill="none" xmlns="http://www.w3.org/2000/svg">
<path fill-rule="evenodd" clip-rule="evenodd" d="M15.6097 2.54418C15.4588 2.37115 15.2415 2.27159 15.0123 2.27159H4.09363L3.93955 1.35189C3.87634 0.971049 3.54686 0.691345 3.16049 0.691345H1.38271C0.945776 0.691345 0.59259 1.04453 0.59259 1.48147C0.59259 1.91841 0.945776 2.27159 1.38271 2.27159H2.49126L3.96089 11.0925L3.99644 11.1905L4.03911 11.3098L4.13392 11.4512L4.20899 11.5397L4.36148 11.6425L4.44997 11.6938C4.54163 11.731 4.63802 11.7531 4.73995 11.7531H13.4321C13.869 11.7531 14.2222 11.3999 14.2222 10.9629C14.2222 10.526 13.869 10.1728 13.4321 10.1728H5.40997L5.27881 9.3827H14.2222C14.6157 9.3827 14.9491 9.09352 15.0044 8.70478L15.7946 3.17391C15.827 2.94636 15.759 2.71643 15.6097 2.54418ZM14.1013 3.85184L13.8761 5.43209H11.0617V3.85184H14.1013ZM10.2716 5.43209V3.85184H7.90123V5.43209H10.2716ZM10.2716 6.22221V7.80246H7.90123V6.22221H10.2716ZM7.11111 5.43209V3.85184H4.35674L4.6238 5.45579L4.74074 5.43209H7.11111ZM4.7518 6.22221H7.11111V7.80246H5.01491L4.7518 6.22221ZM11.0617 6.22221V7.80246H13.5372L13.7624 6.22221H11.0617Z" fill="white"/>
<circle cx="5.62964" cy="14.5185" r="1.18519" fill="white"/>
<circle cx="12.7407" cy="14.5185" r="1.18519" fill="white"/>
</svg>
